<svg width="22" height="38" viewBox="0 0 22 38" fill="none" xmlns="http://www.w3.org/2000/svg">
<path d="M6.29289 15.7929C5.90237 16.1834 5.90237 16.8166 6.29289 17.2071C6.68342 17.5976 7.31658 17.5976 7.70711 17.2071L6.29289 15.7929ZM10.5 13L11.2071 12.2929C10.8166 11.9024 10.1834 11.9024 9.79289 12.2929L10.5 13ZM13.2929 17.2071C13.6834 17.5976 14.3166 17.5976 14.7071 17.2071C15.0976 16.8166 15.0976 16.1834 14.7071 15.7929L13.2929 17.2071ZM7.70711 20.7929C7.31658 20.4024 6.68342 20.4024 6.29289 20.7929C5.90237 21.1834 5.90237 21.8166 6.29289 22.2071L7.70711 20.7929ZM10.5 25L9.79289 25.7071C10.1834 26.0976 10.8166 26.0976 11.2071 25.7071L10.5 25ZM14.7071 22.2071C15.0976 21.8166 15.0976 21.1834 14.7071 20.7929C14.3166 20.4024 13.6834 20.4024 13.2929 20.7929L14.7071 22.2071ZM7.70711 17.2071L11.2071 13.7071L9.79289 12.2929L6.29289 15.7929L7.70711 17.2071ZM9.79289 13.7071L13.2929 17.2071L14.7071 15.7929L11.2071 12.2929L9.79289 13.7071ZM6.29289 22.2071L9.79289 25.7071L11.2071 24.2929L7.70711 20.7929L6.29289 22.2071ZM11.2071 25.7071L14.7071 22.2071L13.2929 20.7929L9.79289 24.2929L11.2071 25.7071Z" fill="#9CA3AF"/>
</svg>
