<svg width="20" height="20" fill="#374151" xmlns="http://www.w3.org/2000/svg" x="0px" y="0px" viewBox="0 0 496 496"><g><g><g><path d="M494.4,239.208l-72-96c-1.511-2.014-3.882-3.2-6.4-3.2h-72v-80c0-4.418-3.582-8-8-8H8c-4.418,0-8,3.582-8,8v328 c0,4.418,3.582,8,8,8h16.64c4.391,30.574,32.736,51.8,63.311,47.409c24.574-3.529,43.88-22.836,47.409-47.409h225.28 c4.391,30.574,32.736,51.8,63.311,47.409c24.574-3.529,43.88-22.836,47.409-47.409H488c4.418,0,8-3.582,8-8v-144 C496,242.277,495.439,240.592,494.4,239.208z M16,68.008h312v272H112c-0.849,0.031-1.686,0.202-2.48,0.504 c-18.047-11.339-40.993-11.339-59.04,0c-0.794-0.302-1.631-0.473-2.48-0.504H16V68.008z M24.64,380.008H16v-24h18.112 C29.114,363.153,25.869,371.375,24.64,380.008z M80,428.008c-22.091,0-40-17.909-40-40c0-22.091,17.909-40,40-40s40,17.909,40,40 C119.974,410.088,102.08,427.981,80,428.008z M360.64,380.008H135.36c-1.229-8.633-4.474-16.855-9.472-24h244.224 C365.114,363.153,361.869,371.375,360.64,380.008z M416,428.008c-22.091,0-40-17.909-40-40c0-22.091,17.909-40,40-40 c22.091,0,40,17.909,40,40C455.974,410.088,438.08,427.981,416,428.008z M480,380.008h-8.64c-1.229-8.633-4.474-16.855-9.472-24 H480V380.008z M480,340.008h-32c-0.849,0.031-1.686,0.202-2.48,0.504c-18.047-11.339-40.993-11.339-59.04,0 c-0.794-0.302-1.631-0.473-2.48-0.504h-40v-184h16v112c0,4.418,3.582,8,8,8h112V340.008z M480,260.008H376v-104h36l68,90.664 V260.008z"></path><path d="M80,364.008c-13.255,0-24,10.745-24,24s10.745,24,24,24s24-10.745,24-24S93.255,364.008,80,364.008z M80,396.008 c-4.418,0-8-3.582-8-8s3.582-8,8-8s8,3.582,8,8S84.418,396.008,80,396.008z"></path><path d="M416,364.008c-13.255,0-24,10.745-24,24s10.745,24,24,24s24-10.745,24-24S429.255,364.008,416,364.008z M416,396.008 c-4.418,0-8-3.582-8-8s3.582-8,8-8s8,3.582,8,8S420.418,396.008,416,396.008z"></path><path d="M360,300.008c0,4.418,3.582,8,8,8h32c4.418,0,8-3.582,8-8s-3.582-8-8-8h-32C363.582,292.008,360,295.589,360,300.008z"></path><path d="M128,92.008c0-4.418-3.582-8-8-8H40c-4.418,0-8,3.582-8,8s3.582,8,8,8h80C124.418,100.008,128,96.426,128,92.008z"></path><path d="M120,116.008H64c-4.418,0-8,3.582-8,8c0,4.418,3.582,8,8,8h56c4.418,0,8-3.582,8-8 C128,119.589,124.418,116.008,120,116.008z"></path><path d="M120,148.008h-16c-4.418,0-8,3.582-8,8s3.582,8,8,8h16c4.418,0,8-3.582,8-8S124.418,148.008,120,148.008z"></path></g></g></g></svg>